<?xml version="1.0" encoding="UTF-8" standalone="no"?>
<svg
   xmlns:dc="http://purl.org/dc/elements/1.1/"
   xmlns:cc="http://creativecommons.org/ns#"
   xmlns:rdf="http://www.w3.org/1999/02/22-rdf-syntax-ns#"
   xmlns:svg="http://www.w3.org/2000/svg"
   xmlns="http://www.w3.org/2000/svg"
   viewBox="0 0 1758.6667 2516"
   height="2516"
   width="1758.6667"
   xml:space="preserve"
   id="svg2"
   version="1.1"><metadata
     id="metadata8"><rdf:RDF><cc:Work
         rdf:about=""><dc:format>image/svg+xml</dc:format><dc:type
           rdf:resource="http://purl.org/dc/dcmitype/StillImage" /></cc:Work></rdf:RDF></metadata><defs
     id="defs6" /><g
     transform="matrix(1.3333333,0,0,-1.3333333,0,2516)"
     id="g10"><g
       transform="scale(0.1)"
       id="g12"><g
         transform="scale(1.15767)"
         id="g14"><path
           id="path16"
           style="fill:#752f8a;fill-opacity:1;fill-rule:nonzero;stroke:none"
           d="m 11216.2,16291.7 c 142.9,-21.1 208.6,-188.7 151.6,-308.6 -99.7,-209.8 -196.6,-420.9 -294.2,-631.7 -208.4,-450.1 -416.3,-900.3 -624.7,-1350.4 -208.3,-450.1 -416.9,-900 -625.28,-1349.9 -163.58,-353.2 -327.13,-706.3 -490.65,-1059.4 -181.39,-391.8 -362.66,-783.6 -544.09,-1175.4 -164.16,-354.4 -328.45,-708.76 -492.67,-1063.11 -160.62,-346.54 -321.73,-692.87 -481.31,-1039.88 -24.16,-52.57 -41.16,-108.41 -61.51,-162.74 -11.47,-0.3 -22.97,-0.87 -34.48,-0.87 -1347.74,-0.04 -2695.48,-0.04 -4043.25,0.03 -12.93,0 -25.85,0.71 -38.77,1.08 -2.23,2.13 -4.45,4.22 -6.68,6.34 -32.43,84.63 -60.94,171.04 -97.96,253.61 -121.44,270.78 -246.01,540.15 -369.24,810.16 -119.69,262.31 -239.13,524.73 -358.71,787.08 -119.01,261 -238.06,522 -357.04,783.1 -103.04,226.1 -206.06,452.3 -308.94,678.6 -116.38,255.9 -232.32,512.1 -348.93,768 -121.94,267.5 -244.63,534.7 -366.61,802.2 -100.75,220.9 -200.94,442.1 -301.39,663.2 -116.95,257.3 -233.83,514.6 -350.981,771.8 -120.092,263.6 -240.62,527.1 -360.672,790.8 -112.433,247 -224.555,494.1 -336.7556,741.1 -26.8893,59.2 -4.8893,171.2 40.9636,217.5 32.021,32.4 63.739,64 112.77,67.2 27.294,-0.1 54.626,-0.1 81.923,-0.1 1075.942,0 2151.862,-0.1 3227.792,0.3 16.14,0 32.27,5.4 48.36,8.3 h 8.64 c 5.57,-3.5 10.73,-8 16.74,-10.4 61.27,-23.8 110.5,-61.8 135.24,-124.3 112.49,-284.1 223.95,-568.7 336,-853 179.17,-454.7 358.75,-909.2 537.72,-1363.9 182.07,-462.7 363.64,-925.6 545.31,-1388.4 115.6,-294.4 229.76,-589.5 347.27,-883.1 40.4,-101 146.35,-147.3 218.22,-132.8 83.99,17 157.1,57.2 186.16,148 8.27,25.9 16.29,51.9 26.32,77 83.23,208.9 167.86,417.2 250.3,626.3 325.17,824.8 649.71,1649.8 974.48,2474.8 105.41,267.8 210.86,535.6 316.23,803.4 61.99,157.6 123.73,315.2 185.82,472.7 29.65,75.4 78.92,129.2 161.72,145.6 24.44,-0.2 48.83,-0.5 73.26,-0.5 1103.99,0.1 2207.98,0.2 3311.98,0.3" /></g><path
         id="path18"
         style="fill:#ff4612;fill-opacity:1;fill-rule:nonzero;stroke:none"
         d="m 4210.31,9435.94 c 14.96,-0.43 29.92,-1.25 44.89,-1.25 1560.23,-0.08 3120.5,-0.08 4680.74,-0.04 13.32,0 26.64,0.66 39.92,1.01 134.69,-307.61 267.03,-616.25 404.53,-922.65 207.66,-462.85 418.67,-924.22 628.71,-1385.98 109.5,-240.66 220.3,-480.7 329.8,-721.33 183.1,-402.11 365.5,-804.61 548.6,-1206.72 110,-241.36 221.1,-482.18 331.1,-723.51 145.6,-319.38 290.7,-638.95 435.8,-958.56 164.7,-362.85 328.7,-726.05 493.9,-1088.75 94,-206.56 190.7,-411.91 284.6,-618.55 145.4,-319.57 289.1,-639.84 434,-959.61 72.8,-160.551 143.5,-322.187 221,-480.469 88.2,-180.191 -62,-367.73022 -232,-367.031 -1242.3,5 -2484.7,4.30078 -3727.03,0.94141 C 8944.34,2.97266 8879.41,67.1523 8817.66,227.461 8742.34,422.93 8664.1,617.23 8588.09,812.422 c -94.18,241.798 -186.61,484.258 -281.33,725.818 -77.15,196.8 -157.38,392.35 -234.73,589.03 -89.61,227.89 -176.87,456.71 -266.44,684.64 -72,183.13 -146.8,365.12 -218.75,548.21 -100.86,256.52 -199.54,513.9 -300.55,770.35 -71.45,181.48 -145.9,361.8 -217.62,543.16 -55.78,141.14 -108.83,283.36 -164.22,424.69 -34.1,87.07 -69.88,173.48 -105.58,259.92 -60.2,145.51 -269.18,195.63 -394.1,79.38 -72.78,-67.7 -90.82,-160.39 -125.04,-245.2 C 6173.67,4929.77 6071.68,4665.47 5968.2,4401.76 5868.32,4147.15 5769.02,3892.3 5668.59,3637.89 5589.57,3437.58 5508.75,3238.01 5429.61,3037.77 5329.1,2783.32 5229.69,2528.48 5129.53,2273.91 5026.45,2011.8 4922.93,1749.88 4819.84,1487.81 4719.73,1233.24 4619.88,978.551 4519.96,723.871 4443.12,528.051 4370.16,330.551 4287.62,137.152 4255.2,61.1719 4189.53,11.5195 4100.39,6.21094 4087.11,5.42969 4073.75,5.23047 4060.47,5.23047 2791.48,5.19922 1522.5,5.16016 253.52,5.23047 134.141,5.23047 39.4102,72.0703 9.48828,186.68 -7.14844,250.352 -2.5,315.313 27.9297,378.199 102.809,533.121 174.73,689.492 246.988,845.66 c 140.434,303.4 279.961,607.23 420.551,910.59 135.859,293.09 272.852,585.63 408.831,878.71 79.22,170.78 156.95,342.23 236.05,513.05 130.2,281.37 260.86,562.54 391.53,843.71 82.07,176.64 164.76,353.01 246.6,529.8 128.2,276.84 255.86,553.99 383.94,830.94 81.1,175.31 162.66,350.39 243.87,525.63 128.94,278.36 257.73,556.79 386.68,835.11 81.17,175.28 162.66,350.43 243.71,525.75 128.05,276.99 255.63,554.17 383.79,831.09 81.84,176.76 164.8,353.01 246.56,529.8 104.96,226.8 210.24,453.48 312.97,681.29 21.84,48.36 33.32,101.37 49.57,152.23 3.13,0.04 6.02,0.9 8.67,2.58" /></g></g></svg>