<?xml version="1.0" encoding="UTF-8" standalone="no"?>
<svg
   xmlns:dc="http://purl.org/dc/elements/1.1/"
   xmlns:cc="http://creativecommons.org/ns#"
   xmlns:rdf="http://www.w3.org/1999/02/22-rdf-syntax-ns#"
   xmlns:svg="http://www.w3.org/2000/svg"
   xmlns="http://www.w3.org/2000/svg"
   viewBox="0 0 1805.3333 981.33331"
   height="981.33331"
   width="1805.3333"
   xml:space="preserve"
   id="svg2"
   version="1.1"><metadata
     id="metadata8"><rdf:RDF><cc:Work
         rdf:about=""><dc:format>image/svg+xml</dc:format><dc:type
           rdf:resource="http://purl.org/dc/dcmitype/StillImage" /></cc:Work></rdf:RDF></metadata><defs
     id="defs6" /><g
     transform="matrix(1.3333333,0,0,-1.3333333,0,981.33333)"
     id="g10"><g
       transform="scale(0.1)"
       id="g12"><path
         id="path14"
         style="fill:#ff4612;fill-opacity:1;fill-rule:nonzero;stroke:none"
         d="m 13537.1,2839.92 c -21.4,1.53 -42.8,4.34 -64.1,4.34 -1039.2,0.19 -2078.3,0.19 -3117.4,0.19 h -64.7 c 0,22.5 0,40.24 0,57.93 0,259.89 0.8,519.73 -0.7,779.57 -0.2,41.45 10.1,74.73 34.4,108.4 158.1,218.28 314.8,437.46 470.9,657.19 155.9,219.53 309.8,440.51 465.8,660.04 186.9,263.28 375.2,525.58 562.8,788.47 74.5,104.46 148.6,209.18 222.5,314.07 4.4,6.25 5.1,15.15 9.1,27.73 h -1653.9 v 1025.47 h 3083 c 0.8,-16.25 2.3,-32.3 2.3,-48.4 0.1,-268.16 0.6,-536.37 -0.8,-804.53 -0.2,-24.45 -7.7,-52.93 -21.6,-72.62 -285.4,-405.66 -572.3,-810.19 -858.7,-1215.15 -226.2,-319.81 -452.1,-639.85 -678.1,-959.81 -66.6,-94.37 -133.1,-188.86 -206.6,-293.24 h 1815.8 z" /><path
         id="path16"
         style="fill:#752f8a;fill-opacity:1;fill-rule:nonzero;stroke:none"
         d="m 12590.2,1138.09 c -49,-138.68 -92.7,-262.539 -136.3,-386.328 h 271.1 c -44.5,127.5 -87.4,250.428 -134.8,386.328 M 13537.1,0.980469 c -141.2,1.398441 -282.5,2.730471 -423.8,4.250001 -41.5,0.46875 -91.8,-12.64844 -121.9,6.25003 -26.7,16.6797 -31.5,68.9492 -44.9,105.9415 -20.8,57.578 -41.7,115.16 -60.6,173.437 -7.5,23.243 -16.5,35.121 -44.1,34.879 -168.1,-1.359 -336.3,-1.597 -504.4,0.203 -30.3,0.309 -39.7,-13.75 -47.7,-37.621 -26.9,-81.09 -53.7,-162.3 -83.3,-242.4997 -5.6,-15.3086 -23.2,-37.30077 -35.6,-37.46092 -172.7,-2.45704 -345.6,-1.67969 -529.2,-1.67969 19.8,56.91011 36.2,106.99231 54.7,156.28931 53.7,143.551 108.1,286.832 162.5,430.082 44.9,118.32 90.3,236.437 135.3,354.758 41.6,109.571 82.8,219.221 124.1,328.911 45.2,119.92 90.1,239.96 135.2,359.88 18.9,50.2 36.2,101.17 58.4,149.88 6.1,13.29 27.4,27.74 41.8,27.9 149.8,1.71 299.7,-1.84 449.5,1.87 43.1,1.09 57.6,-17.93 70,-50.9 96.8,-257.03 194,-513.94 291,-770.901 117.9,-312.34 235.7,-624.679 354,-936.867 3.8,-9.8515 12.6,-17.7812 19,-26.6406 z" /><path
         id="path18"
         style="fill:#ff4612;fill-opacity:1;fill-rule:nonzero;stroke:none"
         d="m 7348.36,6258.71 c -660.66,15.94 -1197.27,-543.63 -1206.99,-1181.37 -10.32,-674.88 528.75,-1207.3 1175.54,-1228.94 639.61,-21.37 1318.52,535 1235.86,1343.01 -53.39,521.75 -534.72,1079.84 -1204.41,1067.3 m -17.07,1099.1 c 336.6,10.35 644.37,-56.29 940.74,-179.8 234.85,-97.89 448.17,-230.63 641.29,-396.96 254.69,-219.37 456.29,-478.86 599.38,-782.93 105.23,-223.67 173.9,-458 197.5,-705.07 29.96,-313.67 6.32,-622.03 -93.01,-922 -89.14,-269.06 -224.18,-513.32 -403.71,-733.63 -230.16,-282.38 -511.21,-498.98 -837.82,-657.11 -217.85,-105.47 -448.36,-170.08 -687.22,-209.29 -176.29,-28.91 -354.14,-31.53 -529.53,-17.86 -268.56,20.9 -529.77,84.3 -776.96,197.15 -190,86.72 -371.99,188.21 -532.57,321.33 -108.4,89.84 -205.4,193.87 -304.22,294.77 -132.19,134.92 -231.88,293 -320.39,459.14 -116.84,219.22 -195.94,450.54 -228.6,696.79 -14.61,110.12 -34.57,221.53 -30.58,331.61 7.53,209.33 29.88,417.65 91.99,620.31 74.26,242.46 183.94,466.4 327.15,675 102.15,148.79 225.66,278.86 356.72,401.01 135.19,126.06 290.31,225.24 451.91,315.35 160.7,89.65 330.35,157.54 505.27,209.38 210.08,62.27 426.29,93.95 632.66,82.81" /><path
         id="path20"
         style="fill:#ff4612;fill-opacity:1;fill-rule:nonzero;stroke:none"
         d="m 7.14844,7265.59 c 441.33156,0.39 882.69156,0.5 1324.02156,1.83 27.89,0.08 36.25,-12.89 44.14,-35.19 109.49,-309.69 219.77,-619.11 329.61,-928.64 210.43,-592.81 420.7,-1185.66 631.29,-1778.39 5.39,-15.12 13.95,-29.07 24.14,-49.85 334.26,934.34 666.13,1862.03 997.85,2789.14 h 1359.07 c -37.58,-98.2 -73.72,-192.97 -110.12,-287.61 -89.45,-232.66 -179.03,-465.24 -268.56,-697.9 -77.3,-200.89 -154.64,-401.79 -231.83,-602.73 -83.01,-216.05 -166.29,-432.03 -248.67,-648.32 -132.31,-347.31 -263.32,-695.12 -396.06,-1042.27 -138.63,-362.5 -279.37,-724.21 -417.07,-1087.07 -15.19,-40.04 -32.69,-55.47 -77.07,-55.23 -406.37,1.84 -812.77,1.09 -1219.14,1.09 h -51.48 C 1133.05,4317.27 569.691,5787.85 6.37109,7258.4 c 1.12891,2.3 1.35938,4.69 0.77735,7.19" /><path
         id="path22"
         style="fill:#752f8a;fill-opacity:1;fill-rule:nonzero;stroke:none"
         d="m 8635,1003.24 c 122.07,6.33 241.84,5.04 359.3,20.98 96.87,13.12 146.6,85.9 145.78,179.65 -0.82,91.6 -49.96,160.9 -145.94,173.98 -117.42,16.02 -237.03,16.02 -359.14,23.17 z m -491.52,812.81 c 17.5,0 35.39,0 53.28,0 223.16,0 446.33,1.29 669.49,-0.43 176.76,-1.36 345.55,-35.07 489.77,-145.66 143.24,-109.88 218.82,-252.93 225.62,-437.3 6.76,-183.99 -46.21,-339.18 -181.09,-464.648 C 9370.43,740 9335.74,716.84 9298.83,688.051 9427.27,465 9556.17,241.25 9688.44,11.6016 9668.95,9.37891 9656.72,6.80078 9644.53,6.76172 9487.97,6.17188 9331.45,5.03906 9174.92,6.98828 c -16.48,0.24219 -39.26,15.67192 -48.08,30.59372 -101.37,171.637 -201.25,344.219 -299.85,517.457 -13.94,24.531 -27.61,36.723 -57.07,34.801 -43.04,-2.731 -86.37,-0.699 -136.72,-0.699 V 8.87109 h -489.72 z" /><path
         id="path24"
         style="fill:#752f8a;fill-opacity:1;fill-rule:nonzero;stroke:none"
         d="M 1823.32,7.58203 H 479.449 V 1812.73 H 1781.29 V 1396.29 H 975.27 v -274.22 h 725.82 V 701.602 H 973.398 V 430.859 h 849.922 z" /><path
         id="path26"
         style="fill:#752f8a;fill-opacity:1;fill-rule:nonzero;stroke:none"
         d="m 7538.71,1395.55 h -804.33 v -273.01 h 724.88 V 702.07 H 6734.77 V 430.16 h 852.14 V 136.371 c 0,-131.14053 0,-131.14053 -132.93,-131.14053 H 6295.23 c -17.93,0 -35.89,0 -56.05,0 V 1812.42 h 1299.53 z" /><path
         id="path28"
         style="fill:#752f8a;fill-opacity:1;fill-rule:nonzero;stroke:none"
         d="m 2835.39,939.691 c -180.27,289.759 -359.02,577.029 -545.23,876.399 h 67.07 c 141.48,0 283,-0.82 424.49,0.67 30.23,0.31 46.91,-8.87 62.58,-35.71 88.82,-152.46 180.08,-303.47 270.78,-454.8 4.06,-6.76 10.62,-11.95 22.77,-25.27 98.99,174.02 195.47,343.71 291.25,512.14 h 531.41 c -50.55,-84.64 -97.5,-163.43 -144.61,-242.1 -119.02,-198.64 -237.54,-397.58 -358.01,-595.399 -14.77,-24.289 -11.72,-38.199 2.34,-61.133 C 3644.22,614.652 3826.68,313.832 4012.58,8.23828 3993.91,7.03125 3979.88,5.30859 3965.86,5.30859 3817.7,5.12109 3669.49,6.41016 3521.37,4.26172 3486.41,3.75 3470,16.2891 3453.32,45.8594 3357.07,216.762 3258.16,386.25 3160.04,556.09 c -4.84,8.359 -10.94,16.019 -20.86,30.39 C 3095.66,512.301 3054.53,442.23 3013.4,372.152 2947.27,259.488 2881.68,146.48 2814.14,34.6523 2806.37,21.8008 2787.62,7.66016 2773.83,7.5 2599.45,5.66016 2425.04,6.28906 2243.95,6.28906 2443.55,321.332 2640,631.332 2835.39,939.691" /><path
         id="path30"
         style="fill:#752f8a;fill-opacity:1;fill-rule:nonzero;stroke:none"
         d="m 4821.29,945.621 c 111.25,5.551 221.13,4.219 328.91,18.438 95.46,12.621 162.5,91.601 163.71,169.221 2.38,151.45 -35.55,223.99 -154.46,244.69 -109.68,19.14 -223.28,15.9 -338.16,22.73 z m -2.5,-414.84 c 0,-112.543 0,-220.269 0,-328.011 0,-53.282 1.68,-106.6802 -1.21,-159.7583 C 4816.88,30 4801.29,7.07031 4792.27,6.94922 4637.77,4.69141 4483.24,5.35156 4325.31,5.35156 V 1816.05 c 18.56,0 36.45,0 54.34,0 223.01,0 446.05,1.29 669.06,-0.43 190.08,-1.44 366.95,-45.15 512.74,-176.32 122.07,-109.81 190.78,-245.67 201.4,-411.1 9.88,-153.79 -18.4,-297.18 -111.52,-422.298 -140.12,-188.281 -334.92,-268.441 -564.03,-274.73 -87.77,-2.422 -175.66,-0.391 -268.51,-0.391" /><path
         id="path32"
         style="fill:#752f8a;fill-opacity:1;fill-rule:nonzero;stroke:none"
         d="m 10890.9,8.67188 h -493.2 V 1392.5 h -524.3 v 419.22 h 1543.8 v -415.98 h -526.3 z" /><path
         id="path34"
         style="fill:#fc744f;fill-opacity:1;fill-rule:nonzero;stroke:none"
         d="m 7.14844,7265.59 c 0.58203,-2.5 0.35156,-4.89 -0.77735,-7.19 -2.10937,2.19 -4.26171,4.33 -6.37109,6.52 2.37891,0.24 4.76953,0.47 7.14844,0.67" /></g></g></svg>