<?xml version="1.0" encoding="UTF-8" standalone="no"?>
<svg
   xmlns:dc="http://purl.org/dc/elements/1.1/"
   xmlns:cc="http://creativecommons.org/ns#"
   xmlns:rdf="http://www.w3.org/1999/02/22-rdf-syntax-ns#"
   xmlns:svg="http://www.w3.org/2000/svg"
   xmlns="http://www.w3.org/2000/svg"
   viewBox="0 0 1805.3333 3725.3333"
   height="3725.3333"
   width="1805.3333"
   xml:space="preserve"
   id="svg2"
   version="1.1"><metadata
     id="metadata8"><rdf:RDF><cc:Work
         rdf:about=""><dc:format>image/svg+xml</dc:format><dc:type
           rdf:resource="http://purl.org/dc/dcmitype/StillImage" /></cc:Work></rdf:RDF></metadata><defs
     id="defs6" /><g
     transform="matrix(1.3333333,0,0,-1.3333333,0,3725.3333)"
     id="g10"><g
       transform="scale(0.1)"
       id="g12"><g
         transform="scale(1.71411)"
         id="g14"><path
           id="path16"
           style="fill:#752f8a;fill-opacity:1;fill-rule:nonzero;stroke:none"
           d="m 7582.99,16294.4 c 96.56,-14.3 140.91,-127.4 102.42,-208.4 -67.32,-141.7 -132.77,-284.3 -198.68,-426.6 -140.74,-304 -281.21,-608.1 -421.91,-912.1 -140.7,-303.9 -281.55,-607.8 -422.32,-911.7 -110.46,-238.5 -220.94,-477 -331.35,-715.5 -122.54,-264.6 -244.96,-529.2 -367.49,-793.8 -110.87,-239.4 -221.83,-478.7 -332.74,-718 -108.47,-234.1 -217.27,-467.9 -325.04,-702.3 -16.33,-35.5 -27.82,-73.2 -41.54,-109.9 -7.77,-0.2 -15.55,-0.6 -23.32,-0.6 -910.22,0 -1820.45,0 -2730.68,0 -8.73,0 -17.48,0.5 -26.21,0.7 -1.51,1.5 -3.01,2.9 -4.52,4.3 -21.89,57.2 -41.12,115.5 -66.15,171.3 -81.99,182.9 -166.15,364.8 -249.36,547.2 -80.83,177.1 -161.52,354.3 -242.28,531.6 -80.36,176.2 -160.78,352.5 -241.11,528.8 -69.62,152.7 -139.19,305.5 -208.67,458.3 -78.61,172.9 -156.91,345.9 -235.67,518.7 -82.33,180.7 -165.21,361.1 -247.594,541.8 -68.047,149.2 -135.684,298.6 -203.551,447.9 -78.986,173.8 -157.924,347.6 -237.026,521.3 -81.129,178 -162.528,356 -243.615,534.1 -75.928,166.7 -151.634,333.7 -227.4297,500.5 -18.1376,40 -3.3067,115.6 27.6656,146.9 21.6261,21.8 43.0711,43.2 76.1621,45.3 18.457,0 36.893,0 55.352,0 726.646,0 1453.306,-0.1 2179.956,0.2 10.89,0 21.78,3.7 32.68,5.6 h 5.81 c 3.76,-2.4 7.24,-5.4 11.3,-7 41.41,-16.1 74.63,-41.8 91.34,-84 76,-191.9 151.27,-384.1 226.93,-576.1 121.01,-307 242.31,-614 363.19,-921.1 122.94,-312.5 245.57,-625.1 368.29,-937.7 78.07,-198.8 155.14,-398.1 234.51,-596.5 27.28,-68.1 98.84,-99.4 147.4,-89.6 56.7,11.5 106.1,38.6 125.72,100 5.56,17.4 10.99,35 17.78,52 56.22,141 113.36,281.7 169.03,422.9 219.61,557.1 438.82,1114.3 658.16,1671.5 71.19,180.8 142.38,361.7 213.55,542.5 41.86,106.5 83.59,212.9 125.5,319.3 20.03,50.9 53.3,87.3 109.25,98.4 16.48,-0.2 32.97,-0.4 49.45,-0.4 745.61,0 1491.21,0.1 2236.81,0.2" /></g><path
         id="path18"
         style="fill:#ff4612;fill-opacity:1;fill-rule:nonzero;stroke:none"
         d="m 13537.1,2839.06 c -21.4,1.49 -42.8,4.3 -64.1,4.34 -1039.2,0.19 -2078.3,0.15 -3117.4,0.15 h -64.7 c 0,22.54 0,40.24 0,57.97 0,259.85 0.8,519.73 -0.7,779.57 -0.2,41.45 10.1,74.73 34.4,108.4 158.1,218.28 314.8,437.46 470.9,657.19 155.9,219.53 309.8,440.51 465.8,660.04 186.9,263.24 375.2,525.58 562.8,788.44 74.5,104.45 148.6,209.22 222.5,314.1 4.4,6.25 5.1,15.15 9.1,27.73 h -1653.9 v 1025.47 h 3083 c 0.8,-16.25 2.3,-32.3 2.3,-48.4 0.1,-268.2 0.6,-536.36 -0.8,-804.57 -0.2,-24.41 -7.7,-52.89 -21.6,-72.61 -285.4,-405.63 -572.3,-810.2 -858.7,-1215.12 -226.2,-319.85 -452.1,-639.85 -678.1,-959.81 -66.6,-94.37 -133.1,-188.9 -206.6,-293.24 h 1815.8 z" /><path
         id="path20"
         style="fill:#752f8a;fill-opacity:1;fill-rule:nonzero;stroke:none"
         d="m 12590.2,1137.23 c -49,-138.71 -92.7,-262.539 -136.3,-386.371 h 271.1 c -44.5,127.5 -87.4,250.471 -134.8,386.371 M 13537.1,0.0820313 C 13395.9,1.48047 13254.6,2.85156 13113.3,4.37891 c -41.5,0.42187 -91.8,-12.65625 -121.9,6.21089 -26.7,16.6797 -31.5,68.9805 -44.9,105.9332 -20.8,57.618 -41.7,115.2 -60.6,173.438 -7.5,23.242 -16.5,35.16 -44.1,34.922 -168.1,-1.363 -336.3,-1.602 -504.4,0.199 -30.3,0.309 -39.7,-13.75 -47.7,-37.621 -26.9,-81.129 -53.7,-162.301 -83.3,-242.5001 -5.6,-15.3515 -23.2,-37.30074 -35.6,-37.49996 C 11998.1,5 11825.2,5.82031 11641.6,5.82031 c 19.8,56.91019 36.2,106.99269 54.7,156.28869 53.7,143.512 108.1,286.801 162.5,430.082 44.9,118.321 90.3,236.442 135.3,354.762 41.6,109.527 82.8,219.217 124.1,328.907 45.2,119.92 90.1,239.92 135.2,359.84 18.9,50.24 36.2,101.21 58.4,149.89 6.1,13.32 27.4,27.77 41.8,27.93 149.8,1.71 299.7,-1.88 449.5,1.87 43.1,1.09 57.6,-17.93 70,-50.9 96.8,-257.07 194,-513.94 291,-770.939 117.9,-312.301 235.7,-624.68 354,-936.8283 3.8,-9.8829 12.6,-17.8125 19,-26.6407 z" /><g
         transform="scale(1.71411)"
         id="g22"><path
           id="path24"
           style="fill:#9763a8;fill-opacity:1;fill-rule:nonzero;stroke:none"
           d="m 5296.73,16294.6 c 1.14,1.7 1.32,3.5 0.57,5.4 h 2285.35 c -0.82,-1.9 -0.71,-3.8 0.34,-5.6 -745.6,-0.1 -1491.2,-0.2 -2236.81,-0.2 -16.48,0 -32.97,0.2 -49.45,0.4" /></g><g
         transform="scale(1.71411)"
         id="g26"><path
           id="path28"
           style="fill:#9763a8;fill-opacity:1;fill-rule:nonzero;stroke:none"
           d="m 2428.97,16300 c -10.9,-1.9 -21.79,-5.6 -32.68,-5.6 -726.65,-0.3 -1453.31,-0.2 -2179.956,-0.2 -18.459,0 -36.895,0 -55.329,0 0.023,2 0.064,3.9 0.087,5.8 z" /></g><g
         transform="scale(1.13533)"
         id="g30"><path
           id="path32"
           style="fill:#ff4612;fill-opacity:1;fill-rule:nonzero;stroke:none"
           d="m 3720.31,16300 c 13.17,-0.4 26.39,-1.1 39.56,-1.1 1374.26,-0.1 2748.51,-0.1 4122.79,0 11.7,0 23.43,0.5 35.17,0.9 118.59,-271 235.2,-542.8 356.28,-812.7 182.93,-407.7 368.76,-814.1 553.76,-1220.8 96.41,-212 194.02,-423.4 290.53,-635.3 161.29,-354.2 321.9,-708.7 483.2,-1062.9 96.85,-212.6 194.73,-424.7 291.62,-637.3 128.28,-281.3 256.08,-562.8 383.88,-844.3 145.1,-319.6 289.5,-639.5 435,-958.9 82.8,-181.98 168,-362.85 250.7,-544.86 128,-281.47 254.6,-563.57 382.3,-845.22 64.1,-141.41 126.3,-283.78 194.6,-423.2 77.7,-158.68 -54.6,-323.86 -204.4,-323.28 -1094.2,4.41 -2188.48,3.79 -3282.74,0.87 -162.5,-0.45 -219.72,56.08 -274.12,197.28 -66.33,172.17 -135.21,343.34 -202.2,515.23 -82.96,212.98 -164.36,426.53 -247.8,639.3 -67.91,173.34 -138.58,345.58 -206.7,518.82 -78.93,200.76 -155.83,402.26 -234.73,603.06 -63.4,161.3 -129.26,321.6 -192.67,482.9 -88.84,225.9 -175.74,452.6 -264.69,678.4 -62.92,159.9 -128.53,318.7 -191.7,478.5 -49.13,124.3 -95.86,249.6 -144.62,374 -30.06,76.7 -61.54,152.8 -93.03,229 -53.02,128.1 -237.1,172.3 -347.13,69.9 -64.09,-59.6 -79.99,-141.3 -110.13,-216 -93.37,-231.3 -183.24,-464.1 -274.35,-696.4 -88.01,-224.3 -175.47,-448.7 -263.9,-672.8 -69.63,-176.4 -140.82,-352.2 -210.5,-528.6 -88.52,-224.1 -176.12,-448.6 -264.3,-672.8 -90.84,-230.83 -181.97,-461.57 -272.78,-692.4 -88.22,-224.22 -176.16,-448.55 -264.16,-672.84 -67.68,-172.51 -131.96,-346.47 -204.66,-516.82 -28.55,-66.92 -86.35,-110.65 -164.9,-115.33 -11.7,-0.69 -23.43,-0.86 -35.16,-0.86 -1117.73,-0.03 -2235.44,-0.06 -3353.167,0 -105.139,0 -188.5426,58.87 -214.8943,159.82 -14.65705,56.08 -10.56272,113.3 16.2053,168.69 65.988,136.45 129.292,274.18 192.946,411.74 123.728,267.23 246.624,534.84 370.448,802.04 119.638,258.16 240.334,515.86 360.061,773.96 69.771,150.4 138.281,301.4 207.921,451.9 114.71,247.8 229.8,495.5 344.85,743.1 72.29,155.6 145.13,311 217.2,466.7 112.97,243.8 225.37,488 338.22,731.9 71.39,154.4 143.23,308.6 214.77,463 113.6,245.1 227.04,490.4 340.58,735.5 71.54,154.4 143.27,308.7 214.66,463.1 112.78,244 225.16,488.1 338.05,732 72.07,155.7 145.15,310.9 217.2,466.7 92.41,199.7 185.17,399.4 275.66,600 19.2,42.6 29.32,89.3 43.63,134.1 2.75,0.1 5.29,0.8 7.64,2.3" /></g><path
         id="path34"
         style="fill:#ff4612;fill-opacity:1;fill-rule:nonzero;stroke:none"
         d="M 7348.36,6257.81 C 6687.7,6273.75 6151.09,5714.18 6141.37,5076.48 6131.05,4401.6 6670.12,3869.14 7316.91,3847.54 c 639.61,-21.41 1318.52,534.96 1235.86,1343.01 -53.39,521.75 -534.72,1079.8 -1204.41,1067.26 m -17.07,1099.1 c 336.6,10.39 644.37,-56.25 940.74,-179.76 234.85,-97.89 448.17,-230.63 641.29,-396.95 254.69,-219.38 456.29,-478.87 599.38,-782.93 105.23,-223.72 173.9,-458.01 197.5,-705.08 29.96,-313.71 6.32,-622.03 -93.01,-921.99 -89.14,-269.07 -224.18,-513.32 -403.71,-733.64 -230.16,-282.42 -511.21,-499.02 -837.82,-657.11 -217.85,-105.47 -448.36,-170.11 -687.22,-209.29 -176.29,-28.95 -354.14,-31.57 -529.53,-17.89 -268.56,20.93 -529.77,84.33 -776.96,197.14 -190,86.72 -371.99,188.25 -532.57,321.37 -108.4,89.84 -205.4,193.87 -304.22,294.77 -132.19,134.88 -231.88,293 -320.39,459.1 -116.84,219.22 -195.94,450.58 -228.6,696.83 -14.61,110.08 -34.57,221.53 -30.58,331.57 7.53,209.33 29.88,417.65 91.99,620.35 74.26,242.42 183.94,466.4 327.15,675 102.15,148.75 225.66,278.83 356.72,401.01 135.19,126.02 290.31,225.24 451.91,315.36 160.7,89.64 330.35,157.53 505.27,209.37 210.08,62.23 426.29,93.91 632.66,82.77" /><path
         id="path36"
         style="fill:#ff4612;fill-opacity:1;fill-rule:nonzero;stroke:none"
         d="m 7.14844,7264.73 c 441.33156,0.39 882.69156,0.47 1324.02156,1.83 27.89,0.08 36.25,-12.93 44.14,-35.23 109.49,-309.65 219.77,-619.06 329.61,-928.63 210.43,-592.82 420.7,-1185.67 631.29,-1778.4 5.39,-15.08 13.95,-29.03 24.14,-49.81 334.26,934.3 666.13,1862.03 997.85,2789.1 h 1359.07 c -37.58,-98.2 -73.72,-192.93 -110.12,-287.57 -89.45,-232.66 -179.03,-465.28 -268.56,-697.9 -77.3,-200.89 -154.64,-401.79 -231.83,-602.77 -83.01,-216.05 -166.29,-431.99 -248.67,-648.28 -132.31,-347.3 -263.32,-695.12 -396.06,-1042.27 -138.63,-362.5 -279.37,-724.21 -417.07,-1087.07 -15.19,-40.03 -32.69,-55.46 -77.07,-55.27 -406.37,1.88 -812.77,1.09 -1219.14,1.09 h -51.48 C 1133.05,4316.41 569.691,5786.95 6.37109,7257.5 c 1.12891,2.34 1.35938,4.73 0.77735,7.23" /><path
         id="path38"
         style="fill:#752f8a;fill-opacity:1;fill-rule:nonzero;stroke:none"
         d="m 8635,1002.38 c 122.07,6.33 241.84,5.04 359.3,20.94 96.87,13.16 146.6,85.9 145.78,179.65 -0.82,91.6 -49.96,160.94 -145.94,174.02 -117.42,16.02 -237.03,16.02 -359.14,23.17 z m -491.52,812.78 c 17.5,0 35.39,0 53.28,0 223.16,0 446.33,1.32 669.49,-0.39 176.76,-1.41 345.55,-35.08 489.77,-145.71 143.24,-109.88 218.82,-252.89 225.62,-437.26 6.76,-184.03 -46.21,-339.179 -181.09,-464.648 -30.12,-28.05 -64.81,-51.172 -101.72,-80 128.44,-223.011 257.34,-446.8 389.61,-676.4098 C 9668.95,8.51953 9656.72,5.94141 9644.53,5.90234 9487.97,5.3125 9331.45,4.14063 9174.92,6.13281 9158.44,6.37109 9135.66,21.8008 9126.84,36.7227 9025.47,208.359 8925.59,380.902 8826.99,554.18 c -13.94,24.531 -27.61,36.679 -57.07,34.8 -43.04,-2.769 -86.37,-0.699 -136.72,-0.699 V 7.97266 h -489.72 z" /><path
         id="path40"
         style="fill:#752f8a;fill-opacity:1;fill-rule:nonzero;stroke:none"
         d="M 1823.32,6.72266 H 479.449 V 1811.88 H 1781.29 V 1395.43 H 975.27 v -274.26 h 725.82 V 700.742 H 973.398 V 430 h 849.922 z" /><path
         id="path42"
         style="fill:#752f8a;fill-opacity:1;fill-rule:nonzero;stroke:none"
         d="m 7538.71,1394.69 h -804.33 v -273.05 h 724.88 V 701.211 h -724.49 v -271.91 h 852.14 V 135.512 c 0,-131.13309 0,-131.13309 -132.93,-131.13309 H 6295.23 c -17.93,0 -35.89,0 -56.05,0 V 1811.52 h 1299.53 z" /><path
         id="path44"
         style="fill:#752f8a;fill-opacity:1;fill-rule:nonzero;stroke:none"
         d="m 2835.39,938.832 c -180.27,289.758 -359.02,577.028 -545.23,876.398 h 67.07 c 141.48,0 283,-0.85 424.49,0.63 30.23,0.31 46.91,-8.83 62.58,-35.7 88.82,-152.43 180.08,-303.44 270.78,-454.81 4.06,-6.72 10.62,-11.91 22.77,-25.23 98.99,174.02 195.47,343.71 291.25,512.11 h 531.41 c -50.55,-84.61 -97.5,-163.4 -144.61,-242.07 -119.02,-198.64 -237.54,-397.62 -358.01,-595.39 -14.77,-24.297 -11.72,-38.207 2.34,-61.137 C 3644.22,613.789 3826.68,312.973 4012.58,7.33984 3993.91,6.13281 3979.88,4.45313 3965.86,4.41016 3817.7,4.22266 3669.49,5.55078 3521.37,3.40234 3486.41,2.89063 3470,15.3906 3453.32,44.9609 3357.07,215.902 3258.16,385.352 3160.04,555.23 c -4.84,8.36 -10.94,15.981 -20.86,30.36 C 3095.66,511.449 3054.53,441.332 3013.4,371.289 2947.27,258.59 2881.68,145.621 2814.14,33.7891 2806.37,20.9414 2787.62,6.80078 2773.83,6.64063 2599.45,4.80078 2425.04,5.42969 2243.95,5.42969 2443.55,320.43 2640,630.473 2835.39,938.832" /><path
         id="path46"
         style="fill:#752f8a;fill-opacity:1;fill-rule:nonzero;stroke:none"
         d="m 4821.29,944.73 c 111.25,5.543 221.13,4.219 328.91,18.473 95.46,12.617 162.5,91.567 163.71,169.217 2.38,151.45 -35.55,223.95 -154.46,244.69 -109.68,19.1 -223.28,15.9 -338.16,22.69 z m -2.5,-414.847 c 0,-112.543 0,-220.274 0,-328.004 0,-53.289 1.68,-106.6485 -1.21,-159.7696 C 4816.88,29.1406 4801.29,6.21094 4792.27,6.05078 4637.77,3.83203 4483.24,4.45313 4325.31,4.45313 V 1815.16 c 18.56,0 36.45,0 54.34,0 223.01,0 446.05,1.32 669.06,-0.39 190.08,-1.45 366.95,-45.16 512.74,-176.33 122.07,-109.85 190.78,-245.71 201.4,-411.14 9.88,-153.75 -18.4,-297.14 -111.52,-422.261 -140.12,-188.277 -334.92,-268.437 -564.03,-274.766 -87.77,-2.382 -175.66,-0.39 -268.51,-0.39" /><path
         id="path48"
         style="fill:#752f8a;fill-opacity:1;fill-rule:nonzero;stroke:none"
         d="m 10890.9,7.8125 h -493.2 V 1391.64 h -524.3 v 419.22 h 1543.8 v -416.02 h -526.3 z" /><g
         transform="scale(1.13578)"
         id="g50"><path
           id="path52"
           style="fill:#96356d;fill-opacity:1;fill-rule:nonzero;stroke:none"
           d="m 3718.83,16293.5 c -2.34,-1.4 -4.88,-2.2 -7.63,-2.2 0.27,2.9 0.55,5.8 0.82,8.7 2.27,-2.2 4.54,-4.3 6.81,-6.5" /></g><path
         id="path54"
         style="fill:#ff4612;fill-opacity:1;fill-rule:nonzero;stroke:none"
         d="m 7.14844,7264.73 c 0.58203,-2.5 0.35156,-4.89 -0.77735,-7.23 -2.10937,2.19 -4.26171,4.38 -6.37109,6.56 2.37891,0.2 4.76953,0.43 7.14844,0.67" /></g></g></svg>